<svg width="15" height="15" viewBox="0 0 15 15" fill="none" xmlns="http://www.w3.org/2000/svg">
<g clip-path="url(#clip0_6404_166)">
<path d="M2.38155 11.2174L5.62639 14.6087C5.75119 14.7391 5.88639 14.837 6.03199 14.9022C6.1776 14.9674 6.3336 15 6.5 15C6.6664 15 6.8224 14.9674 6.96801 14.9022C7.11361 14.837 7.24881 14.7391 7.37361 14.6087L10.6185 11.2174C11.0137 10.8043 11.1018 10.3317 10.883 9.79956C10.665 9.26652 10.2752 9 9.71364 9L3.28636 9C2.72475 9 2.33496 9.26652 2.11697 9.79956C1.89815 10.3317 1.98634 10.8043 2.38155 11.2174Z" fill="#3D348B"/>
</g>
<defs>
<clipPath id="clip0_6404_166">
<rect width="15" height="15" fill="white" transform="matrix(1.19249e-08 -1 -1 -1.19249e-08 15 15)"/>
</clipPath>
</defs>
</svg>
