<svg width="15" height="15" viewBox="0 0 15 15" fill="none" xmlns="http://www.w3.org/2000/svg">
<g clip-path="url(#clip0_1_435)">
<path d="M6.38155 11.2174L9.62639 14.6087C9.75119 14.7391 9.88639 14.837 10.032 14.9022C10.1776 14.9674 10.3336 15 10.5 15C10.6664 15 10.8224 14.9674 10.968 14.9022C11.1136 14.837 11.2488 14.7391 11.3736 14.6087L14.6185 11.2174C15.0137 10.8043 15.1018 10.3317 14.883 9.79956C14.665 9.26652 14.2752 9 13.7136 9L7.28636 9C6.72475 9 6.33496 9.26652 6.11697 9.79956C5.89815 10.3317 5.98634 10.8043 6.38155 11.2174Z" fill="#253168"/>
</g>
<defs>
<clipPath id="clip0_1_435">
<rect width="15" height="15" fill="white" transform="matrix(1.19249e-08 -1 -1 -1.19249e-08 15 15)"/>
</clipPath>
</defs>
</svg>
