<svg width="15" height="15" viewBox="0 0 15 15" fill="none" xmlns="http://www.w3.org/2000/svg">
<g clip-path="url(#clip0_1_437)">
<path d="M3.38155 11.2174L6.62639 14.6087C6.75119 14.7391 6.88639 14.837 7.03199 14.9022C7.1776 14.9674 7.3336 15 7.5 15C7.6664 15 7.8224 14.9674 7.96801 14.9022C8.11361 14.837 8.24881 14.7391 8.37361 14.6087L11.6185 11.2174C12.0137 10.8043 12.1018 10.3317 11.883 9.79956C11.665 9.26652 11.2752 9 10.7136 9L4.28636 9C3.72475 9 3.33496 9.26652 3.11697 9.79956C2.89815 10.3317 2.98634 10.8043 3.38155 11.2174Z" fill="#3D348B"/>
</g>
<defs>
<clipPath id="clip0_1_437">
<rect width="15" height="15" fill="white" transform="matrix(1.19249e-08 -1 -1 -1.19249e-08 15 15)"/>
</clipPath>
</defs>
</svg>
